<mxfile host="app.diagrams.net" modified="2022-01-09T15:46:15.692Z" agent="5.0 (Windows NT 10.0; Win64; x64) AppleWebKit/537.36 (KHTML, like Gecko) Chrome/97.0.4692.71 Safari/537.36" etag="4Y-m_ndCk4htM0amdnlI" version="16.2.4" type="github">
  <diagram name="Page-1" id="d9b1e647-80fa-b4a2-5024-87a742678bcc">
    <mxGraphModel dx="1038" dy="675" grid="1" gridSize="10" guides="1" tooltips="1" connect="1" arrows="1" fold="1" page="1" pageScale="1" pageWidth="1100" pageHeight="850" background="none" math="0" shadow="0">
      <root>
        <mxCell id="0" />
        <mxCell id="1" parent="0" />
        <mxCell id="57fe6abec08f04cb-1" value="Jan" style="shape=step;whiteSpace=wrap;html=1;fontSize=28;fillColor=#0080FF;fontColor=#FFFFFF;strokeColor=none;" parent="1" vertex="1">
          <mxGeometry x="90" y="180" width="170" height="80" as="geometry" />
        </mxCell>
        <mxCell id="57fe6abec08f04cb-2" value="Mar" style="shape=step;whiteSpace=wrap;html=1;fontSize=28;fillColor=#0075E8;fontColor=#FFFFFF;strokeColor=none;" parent="1" vertex="1">
          <mxGeometry x="240" y="180" width="170" height="80" as="geometry" />
        </mxCell>
        <mxCell id="57fe6abec08f04cb-3" value="May" style="shape=step;whiteSpace=wrap;html=1;fontSize=28;fillColor=#0067CC;fontColor=#FFFFFF;strokeColor=none;" parent="1" vertex="1">
          <mxGeometry x="390" y="180" width="170" height="80" as="geometry" />
        </mxCell>
        <mxCell id="57fe6abec08f04cb-4" value="July" style="shape=step;whiteSpace=wrap;html=1;fontSize=28;fillColor=#0062C4;fontColor=#FFFFFF;strokeColor=none;" parent="1" vertex="1">
          <mxGeometry x="540" y="180" width="170" height="80" as="geometry" />
        </mxCell>
        <mxCell id="57fe6abec08f04cb-5" value="Sep" style="shape=step;whiteSpace=wrap;html=1;fontSize=28;fillColor=#0059B0;fontColor=#FFFFFF;strokeColor=none;" parent="1" vertex="1">
          <mxGeometry x="690" y="180" width="170" height="80" as="geometry" />
        </mxCell>
        <mxCell id="57fe6abec08f04cb-6" value="Nov" style="shape=step;whiteSpace=wrap;html=1;fontSize=28;fillColor=#004D99;fontColor=#FFFFFF;strokeColor=none;" parent="1" vertex="1">
          <mxGeometry x="840" y="180" width="170" height="80" as="geometry" />
        </mxCell>
        <mxCell id="57fe6abec08f04cb-7" value="&lt;font style=&quot;font-size: 35px&quot;&gt;Madi &amp;amp; Bob&#39;s List of Weddings 2022&lt;/font&gt;" style="text;html=1;strokeColor=#d6b656;fillColor=#fff2cc;align=center;verticalAlign=middle;whiteSpace=wrap;fontSize=54;fontStyle=1;" parent="1" vertex="1">
          <mxGeometry x="215" y="80" width="670" height="90" as="geometry" />
        </mxCell>
        <mxCell id="jBd8ObLxGtXQ3iwo0EDJ-3" value="" style="shape=actor;whiteSpace=wrap;html=1;" vertex="1" parent="1">
          <mxGeometry x="370" y="300" width="21" height="60" as="geometry" />
        </mxCell>
        <mxCell id="jBd8ObLxGtXQ3iwo0EDJ-4" value="" style="shape=actor;whiteSpace=wrap;html=1;" vertex="1" parent="1">
          <mxGeometry x="391" y="300" width="19" height="60" as="geometry" />
        </mxCell>
        <mxCell id="jBd8ObLxGtXQ3iwo0EDJ-5" value="Joe and Sammie&lt;br&gt;4-20-22" style="text;html=1;strokeColor=none;fillColor=none;align=center;verticalAlign=middle;whiteSpace=wrap;rounded=0;" vertex="1" parent="1">
          <mxGeometry x="360" y="370" width="60" height="30" as="geometry" />
        </mxCell>
        <mxCell id="jBd8ObLxGtXQ3iwo0EDJ-6" value="" style="shape=actor;whiteSpace=wrap;html=1;" vertex="1" parent="1">
          <mxGeometry x="210" y="300" width="21" height="60" as="geometry" />
        </mxCell>
        <mxCell id="jBd8ObLxGtXQ3iwo0EDJ-7" value="" style="shape=actor;whiteSpace=wrap;html=1;" vertex="1" parent="1">
          <mxGeometry x="231" y="300" width="19" height="60" as="geometry" />
        </mxCell>
        <mxCell id="jBd8ObLxGtXQ3iwo0EDJ-8" value="Nick and Morgan&lt;br&gt;3-5-22" style="text;html=1;strokeColor=none;fillColor=none;align=center;verticalAlign=middle;whiteSpace=wrap;rounded=0;" vertex="1" parent="1">
          <mxGeometry x="200" y="370" width="60" height="30" as="geometry" />
        </mxCell>
        <mxCell id="jBd8ObLxGtXQ3iwo0EDJ-9" value="" style="shape=actor;whiteSpace=wrap;html=1;" vertex="1" parent="1">
          <mxGeometry x="500" y="300" width="21" height="60" as="geometry" />
        </mxCell>
        <mxCell id="jBd8ObLxGtXQ3iwo0EDJ-10" value="" style="shape=actor;whiteSpace=wrap;html=1;" vertex="1" parent="1">
          <mxGeometry x="521" y="300" width="19" height="60" as="geometry" />
        </mxCell>
        <mxCell id="jBd8ObLxGtXQ3iwo0EDJ-11" value="Ian and Kate&lt;br&gt;5-21-22" style="text;html=1;strokeColor=none;fillColor=none;align=center;verticalAlign=middle;whiteSpace=wrap;rounded=0;" vertex="1" parent="1">
          <mxGeometry x="490" y="370" width="60" height="30" as="geometry" />
        </mxCell>
      </root>
    </mxGraphModel>
  </diagram>
</mxfile>
